<svg width="133" height="150" viewBox="0 0 133 150" fill="none" xmlns="http://www.w3.org/2000/svg">
<path d="M67 13L13 45" stroke="#E10098" stroke-width="8"/>
<path d="M67 13L119 44" stroke="#E10098" stroke-width="8"/>
<path d="M13 43L13 107" stroke="#E10098" stroke-width="8"/>
<path d="M120 45V108" stroke="#E10098" stroke-width="8"/>
<path d="M16.6738 106.641H117.869" stroke="#E10098" stroke-width="8"/>
<path d="M13 107L67 137" stroke="#E10098" stroke-width="8"/>
<path d="M123 107L68 137" stroke="#E10098" stroke-width="8"/>
<path d="M67 13L120 107" stroke="#E10098" stroke-width="8"/>
<path d="M67 13L13 108" stroke="#E10098" stroke-width="8"/>
<path d="M67 22C71.9706 22 76 17.9706 76 13C76 8.02944 71.9706 4 67 4C62.0294 4 58 8.02944 58 13C58 17.9706 62.0294 22 67 22Z" fill="#E10098" stroke="#E10098" stroke-width="8"/>
<path d="M13 53C17.9706 53 22 48.9706 22 44C22 39.0294 17.9706 35 13 35C8.02944 35 4 39.0294 4 44C4 48.9706 8.02944 53 13 53Z" fill="#E10098" stroke="#E10098" stroke-width="8"/>
<path d="M120 54C124.971 54 129 49.9706 129 45C129 40.0294 124.971 36 120 36C115.029 36 111 40.0294 111 45C111 49.9706 115.029 54 120 54Z" fill="#E10098" stroke="#E10098" stroke-width="8"/>
<path d="M13 117C17.9706 117 22 112.971 22 108C22 103.029 17.9706 99 13 99C8.02944 99 4 103.029 4 108C4 112.971 8.02944 117 13 117Z" fill="#E10098" stroke="#E10098" stroke-width="8"/>
<path d="M120 117C124.971 117 129 112.971 129 108C129 103.029 124.971 99 120 99C115.029 99 111 103.029 111 108C111 112.971 115.029 117 120 117Z" fill="#E10098" stroke="#E10098" stroke-width="8"/>
<path d="M67 146C71.9706 146 76 141.971 76 137C76 132.029 71.9706 128 67 128C62.0294 128 58 132.029 58 137C58 141.971 62.0294 146 67 146Z" fill="#E10098" stroke="#E10098" stroke-width="8"/>
</svg>
