<svg width="457" height="513" viewBox="0 0 457 513" fill="none" xmlns="http://www.w3.org/2000/svg">
<g clip-path="url(#clip0_43_179)">
<path fill-rule="evenodd" clip-rule="evenodd" d="M297.8 173.62L313.42 188.87C317.53 192.89 317.61 199.53 313.6 203.65L301.31 216.22C304.866 222.664 307.543 229.555 309.27 236.71L325.38 236.51C331.12 236.44 335.88 241.09 335.95 246.83L336.2 268.66C336.27 274.41 331.63 279.17 325.88 279.23L308.31 279.44C306.261 286.502 303.278 293.258 299.44 299.53L310.97 310.79C315.08 314.81 315.16 321.46 311.15 325.56L295.9 341.19C291.88 345.3 285.23 345.38 281.12 341.36L268.54 329.08C262.099 332.635 255.211 335.312 248.06 337.04L248.25 353.14C248.32 358.89 243.67 363.65 237.93 363.72L216.1 363.97C210.36 364.04 205.6 359.4 205.53 353.65L205.32 336.08C198.261 334.02 191.505 331.034 185.23 327.2L173.97 338.74C169.95 342.85 163.3 342.93 159.19 338.91L143.58 323.66C139.46 319.64 139.38 313 143.4 308.88L155.68 296.31C152.14 289.87 149.44 282.97 147.72 275.83L131.61 276.02C125.87 276.09 121.11 271.44 121.04 265.7L120.79 243.87C120.72 238.13 125.36 233.37 131.11 233.3L148.68 233.09C150.741 226.03 153.724 219.272 157.55 212.99L146.02 201.73C141.91 197.71 141.84 191.07 145.85 186.96L161.1 171.34C165.11 167.23 171.76 167.15 175.87 171.17L188.45 183.45C194.891 179.895 201.779 177.218 208.93 175.49L208.74 159.39C208.67 153.65 213.32 148.89 219.07 148.82L240.89 148.56C246.64 148.49 251.39 153.13 251.46 158.88L251.67 176.45C258.736 178.505 265.498 181.487 271.78 185.32L283.03 173.79C287.05 169.68 293.7 169.61 297.81 173.62H297.8ZM216.2 115.64V91.29C208.266 89.19 201.031 85.0253 195.23 79.22C186.83 70.78 181.63 59.17 181.63 46.4C181.63 33.65 186.82 22.05 195.23 13.64L195.27 13.6C203.68 5.2 215.27 0 228.03 0C240.79 0 252.39 5.2 260.8 13.6L260.84 13.64C269.24 22.05 274.44 33.65 274.44 46.4C274.44 59.17 269.24 70.78 260.82 79.19C254.693 85.3649 246.945 89.6811 238.47 91.64V115.29C231.88 115.32 225.26 115.46 218.67 115.54C217.84 115.55 217.02 115.58 216.2 115.64ZM239.08 421.05C247.43 423.09 254.9 427.42 260.8 433.31L260.84 433.36C269.24 441.77 274.44 453.36 274.44 466.12C274.44 478.88 269.24 490.47 260.84 498.88L260.8 498.93C252.39 507.33 240.79 512.53 228.03 512.53C215.27 512.53 203.68 507.33 195.27 498.93L195.23 498.88C186.82 490.47 181.63 478.88 181.63 466.12C181.63 453.36 186.82 441.77 195.23 433.36L195.27 433.31C201.13 427.46 208.54 423.16 216.81 421.09V397.25C223.97 397.24 231.16 397.07 238.31 396.99L239.08 396.97V421.05ZM245.1 449.01C240.77 444.68 234.73 441.99 228.03 441.99C221.34 441.99 215.3 444.68 210.97 449.01L210.92 449.05C206.59 453.39 203.9 459.42 203.9 466.12C203.9 472.82 206.59 478.85 210.92 483.19L210.97 483.23C215.3 487.56 221.34 490.25 228.03 490.25C234.73 490.25 240.77 487.56 245.1 483.23L245.14 483.19C249.48 478.85 252.17 472.82 252.17 466.12C252.17 459.42 249.48 453.39 245.14 449.05L245.1 449.01ZM245.1 29.3C240.77 24.96 234.73 22.27 228.03 22.27C221.34 22.27 215.3 24.96 210.97 29.3L210.92 29.34C206.59 33.67 203.9 39.71 203.9 46.4C203.9 53.1 206.59 59.14 210.92 63.48C215.33 67.84 221.37 70.54 228.03 70.54C234.7 70.54 240.74 67.84 245.1 63.48C249.48 59.14 252.17 53.1 252.17 46.4C252.17 39.71 249.48 33.67 245.14 29.34L245.1 29.3ZM410.59 314.66C423.35 314.66 434.95 319.86 443.36 328.26L443.4 328.3C451.8 336.71 457 348.31 457 361.07C457 373.83 451.8 385.42 443.4 393.83L443.36 393.88C434.95 402.28 423.35 407.47 410.59 407.47C397.83 407.47 386.22 402.27 377.81 393.85C369.39 385.48 364.18 373.87 364.18 361.07C364.18 356.39 364.88 351.87 366.17 347.61L344.15 334.89C346.37 329.43 347.45 323.59 347.38 317.76C347.36 315.42 347.14 313.09 346.75 310.79L377.5 328.54L377.78 328.26C386.17 319.87 397.79 314.66 410.59 314.66ZM427.66 343.96C423.33 339.62 417.29 336.93 410.59 336.93C403.93 336.93 397.88 339.64 393.52 344C391.277 346.24 389.499 348.901 388.287 351.831C387.076 354.76 386.455 357.9 386.46 361.07C386.46 367.74 389.16 373.77 393.52 378.13C397.86 382.51 403.9 385.2 410.59 385.2C417.29 385.2 423.33 382.51 427.66 378.18L427.7 378.13C432.04 373.8 434.73 367.77 434.73 361.07C434.73 354.37 432.04 348.33 427.7 344L427.66 343.96ZM46.41 314.66C58.95 314.66 70.35 319.66 78.7 327.75L107.45 311.14C107.24 312.99 107.15 314.84 107.17 316.7C107.23 322.85 108.59 328.97 111.2 334.63L90.51 346.58C92.01 351.14 92.82 356.01 92.82 361.07C92.82 373.87 87.61 385.48 79.22 393.88C70.78 402.27 59.17 407.47 46.41 407.47C33.65 407.47 22.05 402.28 13.64 393.88L13.6 393.83C5.2 385.42 0 373.83 0 361.07C0 348.3 5.2 336.7 13.62 328.28C21.99 319.87 33.6 314.66 46.41 314.66ZM63.48 344C61.2397 341.756 58.5788 339.977 55.6496 338.764C52.7203 337.551 49.5805 336.927 46.41 336.93C39.74 336.93 33.7 339.64 29.34 344C24.96 348.33 22.27 354.37 22.27 361.07C22.27 367.77 24.96 373.8 29.3 378.13L29.34 378.18C33.67 382.51 39.71 385.2 46.41 385.2C53.1 385.2 59.14 382.51 63.48 378.18C67.84 373.77 70.54 367.74 70.54 361.07C70.54 354.4 67.84 348.36 63.48 344ZM410.59 104.8C423.4 104.8 435.01 110 443.41 118.4C451.8 126.79 457 138.4 457 151.21C457 163.97 451.8 175.57 443.4 183.98L443.36 184.02C434.95 192.42 423.35 197.62 410.59 197.62C397.79 197.62 386.17 192.41 377.78 184.02L377.19 183.41L349.74 199.28C349.82 198.13 349.85 196.98 349.83 195.84C349.758 189.058 348.118 182.384 345.04 176.34L366.04 164.2C364.84 160.08 364.18 155.72 364.18 151.21C364.18 138.45 369.38 126.86 377.78 118.45L377.83 118.4C386.24 110 397.83 104.8 410.59 104.8ZM427.67 134.14C425.428 131.897 422.765 130.119 419.834 128.907C416.903 127.696 413.762 127.075 410.59 127.08C403.89 127.08 397.86 129.77 393.52 134.1L393.48 134.14C389.15 138.48 386.46 144.51 386.46 151.21C386.46 157.87 389.16 163.92 393.52 168.28C395.76 170.524 398.421 172.303 401.35 173.516C404.28 174.729 407.419 175.353 410.59 175.35C417.29 175.35 423.33 172.66 427.66 168.32L427.7 168.28C432.04 163.95 434.73 157.91 434.73 151.21C434.73 144.54 432.02 138.49 427.67 134.14ZM46.41 104.8C59.17 104.8 70.76 110 79.17 118.4L79.22 118.45C87.62 126.86 92.82 138.45 92.82 151.21C92.82 154.97 92.36 158.63 91.52 162.13L113.74 175.6C110.305 182.954 108.972 191.115 109.89 199.18L81.27 181.83C80.61 182.58 79.92 183.32 79.22 184.02C70.83 192.41 59.21 197.62 46.41 197.62C33.6 197.62 21.99 192.41 13.6 184.02C5.2 175.58 0 163.98 0 151.21C0 138.45 5.2 126.86 13.6 118.45L13.64 118.4C22.05 110 33.65 104.8 46.41 104.8ZM63.48 134.1C59.14 129.77 53.11 127.08 46.41 127.08C39.71 127.08 33.67 129.77 29.34 134.1L29.3 134.14C24.96 138.48 22.27 144.51 22.27 151.21C22.27 157.91 24.96 163.95 29.3 168.28C33.7 172.64 39.74 175.35 46.41 175.35C53.07 175.35 59.12 172.64 63.48 168.28C65.7221 166.039 67.4998 163.378 68.7113 160.449C69.9228 157.519 70.5443 154.38 70.54 151.21C70.54 144.51 67.85 138.48 63.52 134.14L63.48 134.1ZM227.98 213.35C251.68 213.07 271.13 232.06 271.41 255.75C271.7 279.45 252.7 298.9 229 299.18C205.31 299.47 185.86 280.47 185.58 256.78C185.3 233.08 204.29 213.63 227.98 213.35Z" fill="#FF5402"/>
</g>
<defs>
<clipPath id="clip0_43_179">
<rect width="457" height="512.53" fill="white"/>
</clipPath>
</defs>
</svg>
