<svg width="512" height="512" viewBox="0 0 512 512" fill="none" xmlns="http://www.w3.org/2000/svg">
<path d="M262.688 116.155L332.686 138.899L337.64 76.0187L295.641 62.3725L262.688 116.155Z" fill="#177EAD"/>
<path d="M262.688 116.155L332.686 138.899L337.64 76.0187L295.641 62.3725L262.688 116.155Z" fill="#177EAD"/>
<path d="M343.523 146.773L386.785 206.317L427.752 158.357L401.796 122.631L343.523 146.773Z" fill="#177EAD"/>
<path d="M390.924 219.057L390.924 292.657L452.257 277.937L452.257 233.777L390.924 219.057Z" fill="#177EAD"/>
<path d="M386.785 305.397L343.524 364.941L401.796 389.083L427.752 353.356L386.785 305.397Z" fill="#177EAD"/>
<path d="M332.686 372.814L262.688 395.558L295.641 449.341L337.64 435.695L332.686 372.814Z" fill="#177EAD"/>
<path d="M249.293 395.558L179.295 372.814L174.341 435.695L216.34 449.341L249.293 395.558Z" fill="#1B6080"/>
<path d="M168.457 364.941L125.196 305.397L84.2288 353.356L110.185 389.083L168.457 364.941Z" fill="#1B6080"/>
<path d="M121.057 292.657L121.057 219.057L59.7233 233.777L59.7233 277.937L121.057 292.657Z" fill="#177EAD"/>
<path d="M125.196 206.317L168.457 146.773L110.185 122.631L84.2288 158.357L125.196 206.317Z" fill="#177EAD"/>
<path d="M179.295 138.899L249.293 116.155L216.34 62.3725L174.341 76.0187L179.295 138.899Z" fill="#177EAD"/>
<path d="M210.503 395.853C287.821 420.975 370.864 378.662 395.986 301.344C421.108 224.027 378.795 140.983 301.478 115.861C224.16 90.7389 141.117 133.052 115.995 210.369C90.8727 287.687 133.186 370.731 210.503 395.853Z" fill="#177EAD"/>
<path d="M117.377 305.537C117.377 305.537 130.257 345.404 167.559 378.215C211.106 405.815 257.83 403.67 257.83 403.67L358.417 273.643L335.724 286.523L321.617 304.31L290.951 324.55L257.83 319.03L233.91 324.55L208.764 311.67L190.364 311.67L163.99 296.337L153.564 259.537L117.377 305.537Z" fill="#1B6080"/>
<path d="M240.564 206.243C249.395 190.516 266.061 184.448 281.639 186.44C298.082 188.542 314.082 199.689 319.233 218.263C338.327 220.521 351.19 235.895 353.056 252.279C354.078 261.255 351.837 270.683 345.489 278.481C340.241 284.929 332.465 289.926 322.165 292.784C322.728 297.881 320.941 302.844 318.04 306.97C313.8 313.001 306.844 317.98 299.235 321.198C286.038 326.78 267.52 328.161 255.423 316.294C249.402 320.421 243.37 322.394 237.502 322.653C230.147 322.977 223.703 320.586 218.568 317.532C213.448 314.486 209.395 310.647 206.661 307.65C206.144 307.083 205.672 306.539 205.241 306.032C194.009 310.006 184.094 309.871 176.058 306.339C167.002 302.359 161.319 294.49 159.09 285.806C154.954 269.693 162.486 249.705 182.965 242.715C184.09 224.963 191.772 210.584 203.511 203.506C214.73 196.742 228.275 197.446 240.564 206.243Z" stroke="white" stroke-width="12" stroke-linecap="round"/>
</svg>
