<svg width="338" height="337" viewBox="0 0 338 337" fill="none" xmlns="http://www.w3.org/2000/svg">
<path d="M337.5 0H0.5V112H337.5V0Z" fill="#FF671F"/>
<path d="M337.5 112H0.5V225H337.5V112Z" fill="white"/>
<path d="M337.5 225H0.5V337H337.5V225Z" fill="#046A38"/>
<path d="M169.3 215.753C195.423 215.753 216.6 194.597 216.6 168.5C216.6 142.403 195.423 121.247 169.3 121.247C143.177 121.247 122 142.403 122 168.5C122 194.597 143.177 215.753 169.3 215.753Z" stroke="#06038D" stroke-width="5"/>
<path d="M212.636 176.417C213.841 176.575 214.946 175.728 215.105 174.524C215.263 173.321 214.415 172.217 213.211 172.058C212.006 171.9 210.901 172.747 210.742 173.951C210.584 175.154 211.432 176.258 212.636 176.417Z" fill="#06038D"/>
<path d="M209.109 187.352C210.231 187.816 211.518 187.284 211.983 186.162C212.448 185.041 211.915 183.755 210.793 183.291C209.67 182.826 208.383 183.359 207.918 184.48C207.453 185.602 207.986 186.887 209.109 187.352Z" fill="#06038D"/>
<path d="M202.868 197.003C203.832 197.742 205.213 197.56 205.953 196.597C206.692 195.634 206.511 194.254 205.547 193.515C204.583 192.777 203.202 192.958 202.462 193.921C201.722 194.884 201.904 196.264 202.868 197.003Z" fill="#06038D"/>
<path d="M194.34 204.711C195.08 205.674 196.461 205.856 197.425 205.117C198.389 204.378 198.57 202.998 197.831 202.035C197.091 201.072 195.71 200.891 194.746 201.629C193.782 202.368 193.6 203.748 194.34 204.711Z" fill="#06038D"/>
<path d="M184.105 209.952C184.57 211.073 185.857 211.606 186.98 211.141C188.102 210.677 188.635 209.391 188.171 208.269C187.706 207.148 186.419 206.615 185.296 207.08C184.174 207.544 183.64 208.83 184.105 209.952Z" fill="#06038D"/>
<path d="M172.862 212.367C173.021 213.571 174.126 214.418 175.33 214.26C176.535 214.101 177.383 212.997 177.224 211.794C177.066 210.59 175.961 209.743 174.756 209.901C173.551 210.06 172.703 211.164 172.862 212.367Z" fill="#06038D"/>
<path d="M161.376 211.794C161.217 212.997 162.065 214.101 163.27 214.26C164.474 214.418 165.579 213.571 165.738 212.367C165.897 211.164 165.049 210.06 163.844 209.901C162.639 209.743 161.534 210.59 161.376 211.794Z" fill="#06038D"/>
<path d="M150.429 208.27C149.964 209.391 150.497 210.677 151.62 211.141C152.743 211.606 154.029 211.073 154.494 209.952C154.959 208.83 154.426 207.545 153.304 207.08C152.181 206.616 150.894 207.148 150.429 208.27Z" fill="#06038D"/>
<path d="M140.769 202.035C140.029 202.998 140.211 204.378 141.175 205.117C142.139 205.856 143.52 205.674 144.26 204.711C145 203.748 144.818 202.368 143.854 201.629C142.89 200.891 141.509 201.072 140.769 202.035Z" fill="#06038D"/>
<path d="M133.053 193.515C132.089 194.254 131.907 195.634 132.647 196.597C133.387 197.56 134.768 197.742 135.732 197.003C136.696 196.264 136.877 194.884 136.138 193.921C135.398 192.958 134.017 192.777 133.053 193.515Z" fill="#06038D"/>
<path d="M127.807 183.291C126.685 183.755 126.152 185.041 126.617 186.162C127.082 187.284 128.369 187.816 129.491 187.352C130.614 186.887 131.147 185.602 130.682 184.48C130.217 183.359 128.93 182.826 127.807 183.291Z" fill="#06038D"/>
<path d="M125.389 172.058C124.185 172.217 123.337 173.321 123.495 174.524C123.654 175.728 124.759 176.575 125.964 176.417C127.168 176.258 128.016 175.154 127.858 173.951C127.699 172.747 126.594 171.9 125.389 172.058Z" fill="#06038D"/>
<path d="M125.964 160.584C124.759 160.425 123.654 161.272 123.495 162.476C123.337 163.679 124.185 164.783 125.389 164.942C126.594 165.1 127.699 164.253 127.858 163.049C128.016 161.846 127.168 160.742 125.964 160.584Z" fill="#06038D"/>
<path d="M129.491 149.648C128.369 149.184 127.082 149.716 126.617 150.838C126.152 151.959 126.685 153.245 127.807 153.709C128.93 154.174 130.217 153.641 130.682 152.52C131.147 151.398 130.614 150.113 129.491 149.648Z" fill="#06038D"/>
<path d="M135.732 139.997C134.768 139.258 133.387 139.44 132.647 140.403C131.907 141.366 132.089 142.746 133.053 143.485C134.017 144.224 135.398 144.042 136.138 143.079C136.878 142.116 136.696 140.736 135.732 139.997Z" fill="#06038D"/>
<path d="M144.26 132.289C143.52 131.326 142.139 131.144 141.175 131.883C140.211 132.622 140.029 134.002 140.769 134.965C141.509 135.928 142.89 136.11 143.854 135.371C144.818 134.632 145 133.252 144.26 132.289Z" fill="#06038D"/>
<path d="M154.494 127.048C154.029 125.927 152.743 125.394 151.62 125.859C150.497 126.323 149.964 127.609 150.429 128.731C150.894 129.852 152.181 130.385 153.304 129.92C154.426 129.456 154.959 128.17 154.494 127.048Z" fill="#06038D"/>
<path d="M165.738 124.633C165.579 123.429 164.474 122.582 163.27 122.741C162.065 122.899 161.217 124.003 161.376 125.206C161.534 126.41 162.639 127.257 163.844 127.099C165.049 126.94 165.897 125.836 165.738 124.633Z" fill="#06038D"/>
<path d="M177.224 125.206C177.383 124.003 176.535 122.899 175.33 122.741C174.126 122.582 173.021 123.429 172.862 124.633C172.703 125.836 173.551 126.94 174.756 127.099C175.961 127.257 177.066 126.41 177.224 125.206Z" fill="#06038D"/>
<path d="M188.171 128.731C188.635 127.609 188.102 126.324 186.98 125.859C185.857 125.394 184.57 125.927 184.105 127.048C183.64 128.17 184.174 129.456 185.296 129.92C186.419 130.385 187.706 129.852 188.171 128.731Z" fill="#06038D"/>
<path d="M197.831 134.965C198.57 134.002 198.389 132.622 197.425 131.883C196.461 131.144 195.08 131.326 194.34 132.289C193.6 133.252 193.782 134.632 194.746 135.371C195.71 136.11 197.091 135.928 197.831 134.965Z" fill="#06038D"/>
<path d="M205.547 143.485C206.511 142.746 206.692 141.366 205.953 140.403C205.213 139.44 203.832 139.258 202.868 139.997C201.904 140.736 201.722 142.116 202.462 143.079C203.202 144.042 204.583 144.224 205.547 143.485Z" fill="#06038D"/>
<path d="M210.793 153.709C211.915 153.245 212.448 151.959 211.983 150.838C211.518 149.716 210.231 149.184 209.109 149.648C207.986 150.113 207.453 151.398 207.918 152.52C208.383 153.641 209.67 154.174 210.793 153.709Z" fill="#06038D"/>
<path d="M213.211 164.942C214.415 164.783 215.263 163.679 215.105 162.476C214.946 161.272 213.841 160.425 212.636 160.583C211.432 160.742 210.584 161.846 210.742 163.049C210.901 164.253 212.006 165.1 213.211 164.942Z" fill="#06038D"/>
<path d="M169.3 164.104L167.766 150.984L169.3 122.346L170.834 150.984L169.3 164.104ZM170.439 164.254L172.356 151.184L181.257 123.918L175.32 151.978L170.439 164.254ZM171.5 164.693L176.738 152.565L192.4 128.529L179.395 154.097L171.5 164.693ZM172.411 165.392L180.613 155.031L201.968 135.864L182.782 157.198L172.411 165.392ZM173.11 166.302L183.717 158.415L209.31 145.423L185.251 161.069L173.11 166.302ZM173.55 167.362L185.838 162.486L213.926 156.554L186.633 165.447L173.55 167.362ZM173.7 168.5L186.833 166.968L215.5 168.5L186.833 170.032L173.7 168.5ZM173.55 169.638L186.633 171.553L213.926 180.446L185.838 174.514L173.55 169.638ZM173.11 170.698L185.251 175.931L209.31 191.577L183.717 178.585L173.11 170.698ZM172.411 171.608L182.782 179.802L201.968 201.136L180.613 181.969L172.411 171.608ZM171.5 172.307L179.395 182.903L192.4 208.471L176.738 184.435L171.5 172.307ZM170.439 172.746L175.32 185.022L181.257 213.082L172.356 185.816L170.439 172.746ZM169.3 172.896L170.834 186.016L169.3 214.654L167.766 186.016L169.3 172.896ZM168.161 172.746L166.244 185.816L157.343 213.082L163.28 185.022L168.161 172.746ZM167.1 172.307L161.862 184.435L146.2 208.471L159.205 182.903L167.1 172.307ZM166.189 171.608L157.987 181.969L136.632 201.136L155.818 179.802L166.189 171.608ZM165.49 170.698L154.883 178.585L129.29 191.577L153.349 175.931L165.49 170.698ZM165.05 169.638L152.761 174.514L124.674 180.446L151.967 171.553L165.05 169.638ZM164.9 168.5L151.767 170.032L123.1 168.5L151.767 166.968L164.9 168.5ZM165.05 167.362L151.967 165.447L124.674 156.554L152.761 162.486L165.05 167.362ZM165.49 166.302L153.349 161.069L129.29 145.423L154.883 158.415L165.49 166.302ZM166.189 165.392L155.817 157.198L136.632 135.864L157.987 155.031L166.189 165.392ZM167.1 164.693L159.205 154.097L146.2 128.529L161.862 152.565L167.1 164.693ZM168.161 164.254L163.28 151.978L157.343 123.918L166.244 151.184L168.161 164.254Z" fill="#06038D"/>
<path d="M169.3 177.291C174.16 177.291 178.1 173.355 178.1 168.5C178.1 163.645 174.16 159.709 169.3 159.709C164.44 159.709 160.5 163.645 160.5 168.5C160.5 173.355 164.44 177.291 169.3 177.291Z" fill="#06038D"/>
</svg>
