<svg width="596" height="596" viewBox="0 0 596 596" fill="none" xmlns="http://www.w3.org/2000/svg">
<rect width="596" height="596" rx="24" fill="#1D120C"/>
<path d="M136.254 341.172L118 151.216C118 151.216 175.51 126.003 210.488 106.965C245.994 87.6392 298.108 53 298.108 53V543C298.108 543 225.169 491.952 192.234 449.101C162.769 410.766 136.254 341.172 136.254 341.172Z" fill="#B86A27"/>
<path d="M458.746 341.172L477 151.216C477 151.216 419.49 126.003 384.512 106.965C349.006 87.6392 296.892 53 296.892 53V543C296.892 543 369.831 491.952 402.766 449.101C432.231 410.766 458.746 341.172 458.746 341.172Z" fill="#9D571A"/>
<path d="M278.814 379.751C250.091 378.443 175.673 357.52 141.728 269.906C186.118 191.445 243.656 170.522 284.129 167.907H302.314H320.82C371.737 175.753 427.65 205.83 455.067 275.137C427.65 349.674 349.145 376.848 324.509 379.751C302.314 382.366 302.314 382.366 278.814 379.751Z" fill="#FFFBFB"/>
<path d="M298.397 174.522C352.424 174.522 396.233 218.392 396.233 272.521C396.233 326.651 352.424 370.52 298.397 370.52C244.371 370.52 200.563 326.651 200.562 272.521C200.562 218.392 244.371 174.522 298.397 174.522Z" fill="black" stroke="black" stroke-width="8"/>
<path d="M146.95 267.291C179.764 353.368 251.701 373.924 279.467 375.209C302.184 377.778 302.184 377.778 323.639 375.209C347.454 372.357 423.342 345.66 449.845 272.43" stroke="#A8A8A8" stroke-width="5"/>
<path d="M278.814 379.751C250.091 378.443 169.145 352.29 141.728 269.906C190.363 182.646 249.476 177.542 293.301 177.542C365.664 177.542 427.65 205.83 455.067 275.137C427.65 349.674 349.145 376.848 324.509 379.751C302.314 382.366 302.314 382.366 278.814 379.751Z" fill="url(#paint0_linear_2129_71)"/>
<ellipse cx="359.761" cy="237.214" rx="22.1949" ry="22.2305" fill="#D9D9D9"/>
<path d="M448.539 290.829C451.15 286.906 452.456 286.906 456.373 275.137C420.701 188.771 356.492 166.599 297.378 166.599C238.265 166.599 183.228 189.792 140.422 271.214C144.339 282.983 143.033 280.367 149.561 289.521C167.839 242.445 231.813 200.005 276.203 197.984C304.925 196.676 310.148 196.676 325.815 197.984C374.121 204.522 413.289 230.676 448.539 290.829Z" fill="#393838"/>
<defs>
<linearGradient id="paint0_linear_2129_71" x1="298.398" y1="166.599" x2="298.398" y2="381.713" gradientUnits="userSpaceOnUse">
<stop stop-color="#FFFBFB" stop-opacity="0.1"/>
<stop offset="1" stop-color="#999797" stop-opacity="0.5"/>
</linearGradient>
</defs>
</svg>
