<svg width="128" height="155" viewBox="0 0 128 155" fill="none" xmlns="http://www.w3.org/2000/svg">
<rect y="14" width="128" height="128" fill="#D9D9D9"/>
<path d="M64.144 107.144L64.4 110.344C64.4 113.16 63.4187 115.251 61.456 116.616C58.128 118.92 53.904 120.072 48.784 120.072C45.5413 120.072 43.92 118.664 43.92 115.848L44.304 113.672C46.352 103.603 47.376 91.272 47.376 76.68C47.376 72.2427 46.0533 69.0853 43.408 67.208C42.4693 66.6107 42 65.6293 42 64.264C42 61.6187 44.0907 59.0587 48.272 56.584C52.5387 54.024 55.952 52.744 58.512 52.744C61.072 52.744 62.5227 54.152 62.864 56.968C63.2053 58.9307 63.376 60.424 63.376 61.448C63.376 62.3867 63.7173 62.856 64.4 62.856C64.8267 62.856 65.1253 62.6853 65.296 62.344C65.552 61.9173 65.7653 61.5333 65.936 61.192C66.192 60.7653 66.704 60.0827 67.472 59.144C68.24 58.12 69.0507 57.2667 69.904 56.584C72.1227 54.6213 74.5973 53.64 77.328 53.64C79.12 53.64 80.912 54.1947 82.704 55.304C86.032 57.352 87.696 61.4053 87.696 67.464C87.696 71.304 86.928 74.632 85.392 77.448C83.856 80.264 81.3813 81.672 77.968 81.672C73.7013 81.672 71.568 79.3253 71.568 74.632L71.696 72.712C71.696 71.2613 71.0987 70.536 69.904 70.536C65.3813 70.536 63.12 77.064 63.12 90.12C63.12 93.5333 63.4613 99.208 64.144 107.144Z" fill="#E22596"/>
</svg>
