<svg width="128" height="128" viewBox="0 0 128 128" fill="none" xmlns="http://www.w3.org/2000/svg">
<rect width="128" height="128" fill="oklch(0.985 0 0)"/>
<path d="M62.415 119.816C61.1574 119.466 61.5584 119.735 52.047 112.86C48.7708 110.491 41.2694 105.084 34.5129 100.221C32.5422 98.8025 30.6554 97.3972 30.3199 97.0979C28.8317 95.77 27.4678 93.7867 26.8861 92.1044C26.4254 90.7719 14.996 33.274 15 32.3088C15.0061 30.8516 15.9566 29.5057 17.243 29.1329C17.6525 29.0142 31.1108 28.9793 64.1684 29.0113L110.519 29.0559L111.282 29.4494C112.342 29.9963 112.922 30.8591 112.998 32.0011C113.044 32.6983 112.373 36.2935 109.777 49.2564C107.974 58.2625 105.392 71.2091 104.039 78.0268C102.685 84.8445 101.473 90.8013 101.344 91.2642C100.945 92.6954 99.6353 95.0338 98.608 96.1475C97.9304 96.8821 95.9525 98.406 91.515 101.613C74.5797 113.851 67.4451 118.958 66.8695 119.253C65.445 119.982 63.7707 120.194 62.415 119.816ZM72.12 102.966C72.1694 102.836 71.9265 100.133 71.5801 96.9591C71.2337 93.7849 70.2306 84.6177 69.3508 76.5875C68.4711 68.5574 67.7514 61.7724 67.7514 61.5101C67.7514 61.1198 67.8507 60.9794 68.2982 60.7376C69.0695 60.3208 70.2373 58.9866 70.7734 57.9097C72.9045 53.6294 70.2478 48.4971 65.4566 47.6376C62.0124 47.0198 58.3782 49.3496 57.4568 52.7659C57.2537 53.5187 57.2073 54.1139 57.2651 55.2234C57.3331 56.5275 57.4048 56.8164 57.9214 57.869C58.5081 59.0644 59.944 60.6827 60.6045 60.8931C60.8404 60.9683 60.8898 61.0817 60.8245 61.3977C60.7783 61.6219 60.1891 65.7994 59.515 70.6812C58.8409 75.5629 57.5632 84.7724 56.6755 91.1467C55.7878 97.521 55.1017 102.841 55.1505 102.969C55.2284 103.172 56.2689 103.201 63.6347 103.201C71.0456 103.201 72.0407 103.173 72.12 102.966ZM35.9889 71.3533C37.3154 70.9234 38.4169 70.5572 38.4364 70.5396C38.4559 70.522 38.1728 69.8236 37.807 68.9875C34.7404 61.9775 33.9589 53.4246 35.6758 45.6601C36.0662 43.8944 36.785 41.5311 37.3845 40.0422C37.6288 39.4358 37.6611 39.216 37.5196 39.124C37.4173 39.0575 36.3044 38.6157 35.0465 38.1422C33.3501 37.5036 32.7149 37.3257 32.5873 37.4535C32.3347 37.7065 31.2649 40.5935 30.7339 42.4551C28.0315 51.9284 28.6341 61.3312 32.5353 70.5664C32.8997 71.4292 33.2833 72.135 33.3876 72.135C33.4919 72.135 34.6624 71.7832 35.9889 71.3533ZM95.6621 71.5062C96.2422 70.3648 97.3231 67.4417 97.8688 65.5389C99.855 58.6129 99.9832 50.9904 98.2338 43.8525C97.7473 41.8673 96.7359 38.8031 96.2441 37.8239L95.9591 37.2567L94.9296 37.6405C94.3633 37.8517 93.3169 38.239 92.6041 38.5015C91.8913 38.7639 91.2348 39.0337 91.1453 39.1012C91.0354 39.184 91.267 40.0828 91.8581 41.8681C92.8034 44.7231 93.3837 47.3352 93.6778 50.0609C93.9498 52.5817 93.7948 57.9207 93.3814 60.2749C92.8589 63.2508 91.755 66.922 90.6188 69.4639C90.3517 70.0615 90.2405 70.4805 90.3337 70.5384C90.6077 70.7082 94.8076 72.1111 95.0787 72.1232C95.2403 72.1304 95.4663 71.8914 95.6621 71.5062ZM46.7105 68.236C47.9265 67.8343 48.9826 67.4495 49.0573 67.3808C49.1351 67.3094 48.9312 66.5479 48.581 65.6017C46.0564 58.7797 45.8004 51.2615 47.8652 44.5889C48.0866 43.8734 48.3 43.1464 48.3398 42.973C48.4042 42.692 48.1442 42.5534 45.9457 41.6945C44.5892 41.1647 43.4237 40.79 43.3555 40.8619C43.0954 41.1364 42.1053 44.6066 41.6808 46.7314C40.5879 52.2026 40.6905 57.3781 41.999 62.7673C42.7461 65.8445 43.9694 69.1621 44.3105 69.0362C44.4146 68.9978 45.4946 68.6375 46.7105 68.236ZM84.9095 68.2357C85.1128 67.7744 85.5225 66.6951 85.8199 65.8373C88.3932 58.4172 88.4679 50.2837 86.0311 42.8356C85.701 41.8263 85.3752 40.9448 85.3072 40.8766C85.2102 40.7793 80.4922 42.4623 80.2882 42.6671C80.2607 42.6946 80.4101 43.2589 80.6202 43.9209C81.1737 45.6644 81.5672 47.3406 81.8728 49.2564C82.2049 51.3381 82.246 56.2322 81.9496 58.3619C81.6656 60.4022 80.7942 63.7943 80.0723 65.6704C79.7362 66.5437 79.4962 67.2936 79.5392 67.3368C79.6254 67.4232 84.2207 69.052 84.4172 69.0657C84.4848 69.0705 84.7063 68.6969 84.9095 68.2357Z" fill="#222222" stroke="#222222"/>
</svg>
