<svg width="596" height="596" viewBox="0 0 596 596" fill="none" xmlns="http://www.w3.org/2000/svg">
<rect width="596" height="596" rx="24" fill="#D9D9D9"/>
<path d="M500.518 97.6806C489.142 163.158 483.213 230.501 483.213 299.228C483.213 367.956 489.142 435.298 500.518 500.776L555.137 499.543C543.55 433.485 537.509 365.52 537.509 296.146C537.509 229.036 548.245 161.703 559.104 97.6806L500.518 97.6806Z" fill="#B84D1D"/>
<path d="M452.336 387.827C452.336 420.487 453.517 467.806 460.767 499.543C439.674 492.128 415.755 481.977 393.928 481.977C323.45 481.977 255.256 491.745 190.627 510C152.471 428.91 99.3673 355.534 36 293.63C101.145 234.587 159.04 165.397 200.444 86C260.296 101.469 323.065 109.699 387.758 109.699C415.422 109.699 432.292 105.478 460.767 97.6806C451.064 130.488 452.336 172.905 452.336 208.624C424.958 173.52 377.142 146.681 329.143 146.681C246.509 146.681 179.521 213.599 179.521 296.146C179.521 378.694 246.509 445.612 329.143 445.612C374.451 445.612 424.899 419.609 452.336 387.827Z" fill="#B84D1D"/>
<path d="M346.419 412.538C282.939 412.538 231.479 361.131 231.479 297.717C231.479 234.304 282.939 182.897 346.419 182.897C409.9 182.897 461.36 234.304 461.36 297.717C461.36 361.131 409.899 412.538 346.419 412.538Z" fill="#B84D1D"/>
</svg>
